%TF.GenerationSoftware,KiCad,Pcbnew,(6.0.6)*%
%TF.CreationDate,2022-06-23T13:21:08-07:00*%
%TF.ProjectId,A1301EUA-T_HallEffectBoard,41313330-3145-4554-912d-545f48616c6c,rev?*%
%TF.SameCoordinates,Original*%
%TF.FileFunction,Copper,L2,Bot*%
%TF.FilePolarity,Positive*%
%FSLAX46Y46*%
G04 Gerber Fmt 4.6, Leading zero omitted, Abs format (unit mm)*
G04 Created by KiCad (PCBNEW (6.0.6)) date 2022-06-23 13:21:08*
%MOMM*%
%LPD*%
G01*
G04 APERTURE LIST*
%TA.AperFunction,ComponentPad*%
%ADD10C,1.600000*%
%TD*%
%TA.AperFunction,ComponentPad*%
%ADD11O,1.600000X1.600000*%
%TD*%
%TA.AperFunction,ComponentPad*%
%ADD12R,1.700000X1.700000*%
%TD*%
%TA.AperFunction,ComponentPad*%
%ADD13O,1.700000X1.700000*%
%TD*%
%TA.AperFunction,ComponentPad*%
%ADD14R,1.300000X1.300000*%
%TD*%
%TA.AperFunction,ComponentPad*%
%ADD15C,1.300000*%
%TD*%
G04 APERTURE END LIST*
D10*
X8930000Y-25400000D03*
X13930000Y-25400000D03*
X8890000Y-6350000D03*
D11*
X8890000Y-21590000D03*
D10*
X13970000Y-6350000D03*
D11*
X13970000Y-21590000D03*
D10*
X8890000Y-2540000D03*
X13890000Y-2540000D03*
D12*
X3810000Y-11430000D03*
D13*
X3810000Y-13970000D03*
X3810000Y-16510000D03*
D14*
X18389600Y-11430000D03*
D15*
X18389600Y-13970000D03*
X18389600Y-16510000D03*
%TA.AperFunction,Conductor*%
G36*
X21023621Y-528502D02*
G01*
X21070114Y-582158D01*
X21081500Y-634500D01*
X21081500Y-27305500D01*
X21061498Y-27373621D01*
X21007842Y-27420114D01*
X20955500Y-27431500D01*
X634500Y-27431500D01*
X566379Y-27411498D01*
X519886Y-27357842D01*
X508500Y-27305500D01*
X508500Y-25400000D01*
X7616502Y-25400000D01*
X7636457Y-25628087D01*
X7637881Y-25633400D01*
X7637881Y-25633402D01*
X7675025Y-25772022D01*
X7695716Y-25849243D01*
X7698039Y-25854224D01*
X7698039Y-25854225D01*
X7790151Y-26051762D01*
X7790154Y-26051767D01*
X7792477Y-26056749D01*
X7923802Y-26244300D01*
X8085700Y-26406198D01*
X8090208Y-26409355D01*
X8090211Y-26409357D01*
X8168389Y-26464098D01*
X8273251Y-26537523D01*
X8278233Y-26539846D01*
X8278238Y-26539849D01*
X8474765Y-26631490D01*
X8480757Y-26634284D01*
X8486065Y-26635706D01*
X8486067Y-26635707D01*
X8696598Y-26692119D01*
X8696600Y-26692119D01*
X8701913Y-26693543D01*
X8930000Y-26713498D01*
X9158087Y-26693543D01*
X9163400Y-26692119D01*
X9163402Y-26692119D01*
X9373933Y-26635707D01*
X9373935Y-26635706D01*
X9379243Y-26634284D01*
X9385235Y-26631490D01*
X9581762Y-26539849D01*
X9581767Y-26539846D01*
X9586749Y-26537523D01*
X9660243Y-26486062D01*
X13208493Y-26486062D01*
X13217789Y-26498077D01*
X13268994Y-26533931D01*
X13278489Y-26539414D01*
X13475947Y-26631490D01*
X13486239Y-26635236D01*
X13696688Y-26691625D01*
X13707481Y-26693528D01*
X13924525Y-26712517D01*
X13935475Y-26712517D01*
X14152519Y-26693528D01*
X14163312Y-26691625D01*
X14373761Y-26635236D01*
X14384053Y-26631490D01*
X14581511Y-26539414D01*
X14591006Y-26533931D01*
X14643048Y-26497491D01*
X14651424Y-26487012D01*
X14644356Y-26473566D01*
X13942812Y-25772022D01*
X13928868Y-25764408D01*
X13927035Y-25764539D01*
X13920420Y-25768790D01*
X13214923Y-26474287D01*
X13208493Y-26486062D01*
X9660243Y-26486062D01*
X9691611Y-26464098D01*
X9769789Y-26409357D01*
X9769792Y-26409355D01*
X9774300Y-26406198D01*
X9936198Y-26244300D01*
X10067523Y-26056749D01*
X10069846Y-26051767D01*
X10069849Y-26051762D01*
X10161961Y-25854225D01*
X10161961Y-25854224D01*
X10164284Y-25849243D01*
X10184976Y-25772022D01*
X10222119Y-25633402D01*
X10222119Y-25633400D01*
X10223543Y-25628087D01*
X10243019Y-25405475D01*
X12617483Y-25405475D01*
X12636472Y-25622519D01*
X12638375Y-25633312D01*
X12694764Y-25843761D01*
X12698510Y-25854053D01*
X12790586Y-26051511D01*
X12796069Y-26061006D01*
X12832509Y-26113048D01*
X12842988Y-26121424D01*
X12856434Y-26114356D01*
X13557978Y-25412812D01*
X13564356Y-25401132D01*
X14294408Y-25401132D01*
X14294539Y-25402965D01*
X14298790Y-25409580D01*
X15004287Y-26115077D01*
X15016062Y-26121507D01*
X15028077Y-26112211D01*
X15063931Y-26061006D01*
X15069414Y-26051511D01*
X15161490Y-25854053D01*
X15165236Y-25843761D01*
X15221625Y-25633312D01*
X15223528Y-25622519D01*
X15242517Y-25405475D01*
X15242517Y-25394525D01*
X15223528Y-25177481D01*
X15221625Y-25166688D01*
X15165236Y-24956239D01*
X15161490Y-24945947D01*
X15069414Y-24748489D01*
X15063931Y-24738994D01*
X15027491Y-24686952D01*
X15017012Y-24678576D01*
X15003566Y-24685644D01*
X14302022Y-25387188D01*
X14294408Y-25401132D01*
X13564356Y-25401132D01*
X13565592Y-25398868D01*
X13565461Y-25397035D01*
X13561210Y-25390420D01*
X12855713Y-24684923D01*
X12843938Y-24678493D01*
X12831923Y-24687789D01*
X12796069Y-24738994D01*
X12790586Y-24748489D01*
X12698510Y-24945947D01*
X12694764Y-24956239D01*
X12638375Y-25166688D01*
X12636472Y-25177481D01*
X12617483Y-25394525D01*
X12617483Y-25405475D01*
X10243019Y-25405475D01*
X10243498Y-25400000D01*
X10223543Y-25171913D01*
X10186981Y-25035461D01*
X10165707Y-24956067D01*
X10165706Y-24956065D01*
X10164284Y-24950757D01*
X10069966Y-24748489D01*
X10069849Y-24748238D01*
X10069846Y-24748233D01*
X10067523Y-24743251D01*
X9936198Y-24555700D01*
X9774300Y-24393802D01*
X9769792Y-24390645D01*
X9769789Y-24390643D01*
X9658886Y-24312988D01*
X13208576Y-24312988D01*
X13215644Y-24326434D01*
X13917188Y-25027978D01*
X13931132Y-25035592D01*
X13932965Y-25035461D01*
X13939580Y-25031210D01*
X14645077Y-24325713D01*
X14651507Y-24313938D01*
X14642211Y-24301923D01*
X14591006Y-24266069D01*
X14581511Y-24260586D01*
X14384053Y-24168510D01*
X14373761Y-24164764D01*
X14163312Y-24108375D01*
X14152519Y-24106472D01*
X13935475Y-24087483D01*
X13924525Y-24087483D01*
X13707481Y-24106472D01*
X13696688Y-24108375D01*
X13486239Y-24164764D01*
X13475947Y-24168510D01*
X13278489Y-24260586D01*
X13268994Y-24266069D01*
X13216952Y-24302509D01*
X13208576Y-24312988D01*
X9658886Y-24312988D01*
X9643920Y-24302509D01*
X9586749Y-24262477D01*
X9581767Y-24260154D01*
X9581762Y-24260151D01*
X9384225Y-24168039D01*
X9384224Y-24168039D01*
X9379243Y-24165716D01*
X9373935Y-24164294D01*
X9373933Y-24164293D01*
X9163402Y-24107881D01*
X9163400Y-24107881D01*
X9158087Y-24106457D01*
X8930000Y-24086502D01*
X8701913Y-24106457D01*
X8696600Y-24107881D01*
X8696598Y-24107881D01*
X8486067Y-24164293D01*
X8486065Y-24164294D01*
X8480757Y-24165716D01*
X8475776Y-24168039D01*
X8475775Y-24168039D01*
X8278238Y-24260151D01*
X8278233Y-24260154D01*
X8273251Y-24262477D01*
X8216080Y-24302509D01*
X8090211Y-24390643D01*
X8090208Y-24390645D01*
X8085700Y-24393802D01*
X7923802Y-24555700D01*
X7792477Y-24743251D01*
X7790154Y-24748233D01*
X7790151Y-24748238D01*
X7790034Y-24748489D01*
X7695716Y-24950757D01*
X7694294Y-24956065D01*
X7694293Y-24956067D01*
X7673019Y-25035461D01*
X7636457Y-25171913D01*
X7616502Y-25400000D01*
X508500Y-25400000D01*
X508500Y-21590000D01*
X7576502Y-21590000D01*
X7596457Y-21818087D01*
X7655716Y-22039243D01*
X7658039Y-22044224D01*
X7658039Y-22044225D01*
X7750151Y-22241762D01*
X7750154Y-22241767D01*
X7752477Y-22246749D01*
X7883802Y-22434300D01*
X8045700Y-22596198D01*
X8050208Y-22599355D01*
X8050211Y-22599357D01*
X8128389Y-22654098D01*
X8233251Y-22727523D01*
X8238233Y-22729846D01*
X8238238Y-22729849D01*
X8435775Y-22821961D01*
X8440757Y-22824284D01*
X8446065Y-22825706D01*
X8446067Y-22825707D01*
X8656598Y-22882119D01*
X8656600Y-22882119D01*
X8661913Y-22883543D01*
X8890000Y-22903498D01*
X9118087Y-22883543D01*
X9123400Y-22882119D01*
X9123402Y-22882119D01*
X9333933Y-22825707D01*
X9333935Y-22825706D01*
X9339243Y-22824284D01*
X9344225Y-22821961D01*
X9541762Y-22729849D01*
X9541767Y-22729846D01*
X9546749Y-22727523D01*
X9651611Y-22654098D01*
X9729789Y-22599357D01*
X9729792Y-22599355D01*
X9734300Y-22596198D01*
X9896198Y-22434300D01*
X10027523Y-22246749D01*
X10029846Y-22241767D01*
X10029849Y-22241762D01*
X10121961Y-22044225D01*
X10121961Y-22044224D01*
X10124284Y-22039243D01*
X10183543Y-21818087D01*
X10203498Y-21590000D01*
X12656502Y-21590000D01*
X12676457Y-21818087D01*
X12735716Y-22039243D01*
X12738039Y-22044224D01*
X12738039Y-22044225D01*
X12830151Y-22241762D01*
X12830154Y-22241767D01*
X12832477Y-22246749D01*
X12963802Y-22434300D01*
X13125700Y-22596198D01*
X13130208Y-22599355D01*
X13130211Y-22599357D01*
X13208389Y-22654098D01*
X13313251Y-22727523D01*
X13318233Y-22729846D01*
X13318238Y-22729849D01*
X13515775Y-22821961D01*
X13520757Y-22824284D01*
X13526065Y-22825706D01*
X13526067Y-22825707D01*
X13736598Y-22882119D01*
X13736600Y-22882119D01*
X13741913Y-22883543D01*
X13970000Y-22903498D01*
X14198087Y-22883543D01*
X14203400Y-22882119D01*
X14203402Y-22882119D01*
X14413933Y-22825707D01*
X14413935Y-22825706D01*
X14419243Y-22824284D01*
X14424225Y-22821961D01*
X14621762Y-22729849D01*
X14621767Y-22729846D01*
X14626749Y-22727523D01*
X14731611Y-22654098D01*
X14809789Y-22599357D01*
X14809792Y-22599355D01*
X14814300Y-22596198D01*
X14976198Y-22434300D01*
X15107523Y-22246749D01*
X15109846Y-22241767D01*
X15109849Y-22241762D01*
X15201961Y-22044225D01*
X15201961Y-22044224D01*
X15204284Y-22039243D01*
X15263543Y-21818087D01*
X15283498Y-21590000D01*
X15263543Y-21361913D01*
X15204284Y-21140757D01*
X15201961Y-21135775D01*
X15109849Y-20938238D01*
X15109846Y-20938233D01*
X15107523Y-20933251D01*
X14976198Y-20745700D01*
X14814300Y-20583802D01*
X14809792Y-20580645D01*
X14809789Y-20580643D01*
X14731611Y-20525902D01*
X14626749Y-20452477D01*
X14621767Y-20450154D01*
X14621762Y-20450151D01*
X14424225Y-20358039D01*
X14424224Y-20358039D01*
X14419243Y-20355716D01*
X14413935Y-20354294D01*
X14413933Y-20354293D01*
X14203402Y-20297881D01*
X14203400Y-20297881D01*
X14198087Y-20296457D01*
X13970000Y-20276502D01*
X13741913Y-20296457D01*
X13736600Y-20297881D01*
X13736598Y-20297881D01*
X13526067Y-20354293D01*
X13526065Y-20354294D01*
X13520757Y-20355716D01*
X13515776Y-20358039D01*
X13515775Y-20358039D01*
X13318238Y-20450151D01*
X13318233Y-20450154D01*
X13313251Y-20452477D01*
X13208389Y-20525902D01*
X13130211Y-20580643D01*
X13130208Y-20580645D01*
X13125700Y-20583802D01*
X12963802Y-20745700D01*
X12832477Y-20933251D01*
X12830154Y-20938233D01*
X12830151Y-20938238D01*
X12738039Y-21135775D01*
X12735716Y-21140757D01*
X12676457Y-21361913D01*
X12656502Y-21590000D01*
X10203498Y-21590000D01*
X10183543Y-21361913D01*
X10124284Y-21140757D01*
X10121961Y-21135775D01*
X10029849Y-20938238D01*
X10029846Y-20938233D01*
X10027523Y-20933251D01*
X9896198Y-20745700D01*
X9734300Y-20583802D01*
X9729792Y-20580645D01*
X9729789Y-20580643D01*
X9651611Y-20525902D01*
X9546749Y-20452477D01*
X9541767Y-20450154D01*
X9541762Y-20450151D01*
X9344225Y-20358039D01*
X9344224Y-20358039D01*
X9339243Y-20355716D01*
X9333935Y-20354294D01*
X9333933Y-20354293D01*
X9123402Y-20297881D01*
X9123400Y-20297881D01*
X9118087Y-20296457D01*
X8890000Y-20276502D01*
X8661913Y-20296457D01*
X8656600Y-20297881D01*
X8656598Y-20297881D01*
X8446067Y-20354293D01*
X8446065Y-20354294D01*
X8440757Y-20355716D01*
X8435776Y-20358039D01*
X8435775Y-20358039D01*
X8238238Y-20450151D01*
X8238233Y-20450154D01*
X8233251Y-20452477D01*
X8128389Y-20525902D01*
X8050211Y-20580643D01*
X8050208Y-20580645D01*
X8045700Y-20583802D01*
X7883802Y-20745700D01*
X7752477Y-20933251D01*
X7750154Y-20938233D01*
X7750151Y-20938238D01*
X7658039Y-21135775D01*
X7655716Y-21140757D01*
X7596457Y-21361913D01*
X7576502Y-21590000D01*
X508500Y-21590000D01*
X508500Y-16476695D01*
X2447251Y-16476695D01*
X2447548Y-16481848D01*
X2447548Y-16481851D01*
X2459812Y-16694547D01*
X2460110Y-16699715D01*
X2461247Y-16704761D01*
X2461248Y-16704767D01*
X2477277Y-16775890D01*
X2509222Y-16917639D01*
X2593266Y-17124616D01*
X2709987Y-17315088D01*
X2856250Y-17483938D01*
X2965612Y-17574732D01*
X3017481Y-17617794D01*
X3028126Y-17626632D01*
X3221000Y-17739338D01*
X3429692Y-17819030D01*
X3434760Y-17820061D01*
X3434763Y-17820062D01*
X3542017Y-17841883D01*
X3648597Y-17863567D01*
X3653772Y-17863757D01*
X3653774Y-17863757D01*
X3866673Y-17871564D01*
X3866677Y-17871564D01*
X3871837Y-17871753D01*
X3876957Y-17871097D01*
X3876959Y-17871097D01*
X4088288Y-17844025D01*
X4088289Y-17844025D01*
X4093416Y-17843368D01*
X4098366Y-17841883D01*
X4302429Y-17780661D01*
X4302434Y-17780659D01*
X4307384Y-17779174D01*
X4507994Y-17680896D01*
X4689860Y-17551173D01*
X4706340Y-17534751D01*
X4824113Y-17417388D01*
X4848096Y-17393489D01*
X4907594Y-17310689D01*
X4975435Y-17216277D01*
X4978453Y-17212077D01*
X4999747Y-17168993D01*
X5075136Y-17016453D01*
X5075137Y-17016451D01*
X5077430Y-17011811D01*
X5142370Y-16798069D01*
X5171529Y-16576590D01*
X5171759Y-16567184D01*
X5173074Y-16513365D01*
X5173074Y-16513361D01*
X5173156Y-16510000D01*
X5170652Y-16479544D01*
X17226536Y-16479544D01*
X17240461Y-16692006D01*
X17241882Y-16697602D01*
X17241883Y-16697607D01*
X17266095Y-16792939D01*
X17292872Y-16898372D01*
X17295289Y-16903615D01*
X17331989Y-16983223D01*
X17382011Y-17091731D01*
X17504896Y-17265609D01*
X17657409Y-17414181D01*
X17662205Y-17417386D01*
X17662208Y-17417388D01*
X17733688Y-17465149D01*
X17834443Y-17532471D01*
X17839746Y-17534749D01*
X17839749Y-17534751D01*
X17921924Y-17570056D01*
X18030070Y-17616519D01*
X18086298Y-17629242D01*
X18232101Y-17662234D01*
X18232106Y-17662235D01*
X18237738Y-17663509D01*
X18243509Y-17663736D01*
X18243511Y-17663736D01*
X18304852Y-17666146D01*
X18450491Y-17671869D01*
X18456200Y-17671041D01*
X18456204Y-17671041D01*
X18655490Y-17642145D01*
X18655494Y-17642144D01*
X18661205Y-17641316D01*
X18862823Y-17572876D01*
X19048593Y-17468840D01*
X19212293Y-17332693D01*
X19348440Y-17168993D01*
X19452476Y-16983223D01*
X19520916Y-16781605D01*
X19532058Y-16704767D01*
X19550937Y-16574561D01*
X19550937Y-16574559D01*
X19551469Y-16570891D01*
X19553063Y-16510000D01*
X19533581Y-16297976D01*
X19475786Y-16093052D01*
X19464765Y-16070702D01*
X19384170Y-15907273D01*
X19381615Y-15902092D01*
X19358092Y-15870590D01*
X19257674Y-15736114D01*
X19254222Y-15731491D01*
X19097871Y-15586963D01*
X18917801Y-15473347D01*
X18720041Y-15394449D01*
X18714381Y-15393323D01*
X18714377Y-15393322D01*
X18560589Y-15362732D01*
X18497679Y-15329825D01*
X18462547Y-15268130D01*
X18466347Y-15197235D01*
X18507873Y-15139649D01*
X18567090Y-15114457D01*
X18655374Y-15101657D01*
X18666557Y-15098972D01*
X18857147Y-15034276D01*
X18867660Y-15029595D01*
X18994366Y-14958635D01*
X19004231Y-14948557D01*
X19001275Y-14940885D01*
X18402412Y-14342022D01*
X18388468Y-14334408D01*
X18386635Y-14334539D01*
X18380020Y-14338790D01*
X17782812Y-14935998D01*
X17776616Y-14947344D01*
X17786498Y-14959834D01*
X17829879Y-14988820D01*
X17839989Y-14994310D01*
X18024918Y-15073762D01*
X18035861Y-15077317D01*
X18216574Y-15118208D01*
X18278600Y-15152751D01*
X18312105Y-15215344D01*
X18306451Y-15286115D01*
X18263432Y-15342594D01*
X18210104Y-15365281D01*
X18094164Y-15385203D01*
X18094161Y-15385204D01*
X18088474Y-15386181D01*
X17888716Y-15459875D01*
X17705734Y-15568739D01*
X17545654Y-15709125D01*
X17413838Y-15876333D01*
X17411149Y-15881444D01*
X17411147Y-15881447D01*
X17356685Y-15984961D01*
X17314700Y-16064762D01*
X17312986Y-16070283D01*
X17312984Y-16070287D01*
X17260094Y-16240623D01*
X17251561Y-16268102D01*
X17226536Y-16479544D01*
X5170652Y-16479544D01*
X5154852Y-16287361D01*
X5100431Y-16070702D01*
X5011354Y-15865840D01*
X4971906Y-15804862D01*
X4892822Y-15682617D01*
X4892820Y-15682614D01*
X4890014Y-15678277D01*
X4739670Y-15513051D01*
X4735619Y-15509852D01*
X4735615Y-15509848D01*
X4568414Y-15377800D01*
X4568410Y-15377798D01*
X4564359Y-15374598D01*
X4522569Y-15351529D01*
X4472598Y-15301097D01*
X4457826Y-15231654D01*
X4482942Y-15165248D01*
X4510294Y-15138641D01*
X4685328Y-15013792D01*
X4693200Y-15007139D01*
X4844052Y-14856812D01*
X4850730Y-14848965D01*
X4975003Y-14676020D01*
X4980313Y-14667183D01*
X5074670Y-14476267D01*
X5078469Y-14466672D01*
X5140377Y-14262910D01*
X5142555Y-14252837D01*
X5143986Y-14241962D01*
X5141775Y-14227778D01*
X5128617Y-14224000D01*
X2493225Y-14224000D01*
X2479694Y-14227973D01*
X2478257Y-14237966D01*
X2508565Y-14372446D01*
X2511645Y-14382275D01*
X2591770Y-14579603D01*
X2596413Y-14588794D01*
X2707694Y-14770388D01*
X2713777Y-14778699D01*
X2853213Y-14939667D01*
X2860580Y-14946883D01*
X3024434Y-15082916D01*
X3032881Y-15088831D01*
X3101969Y-15129203D01*
X3150693Y-15180842D01*
X3163764Y-15250625D01*
X3137033Y-15316396D01*
X3096584Y-15349752D01*
X3083607Y-15356507D01*
X3079474Y-15359610D01*
X3079471Y-15359612D01*
X2909100Y-15487530D01*
X2904965Y-15490635D01*
X2750629Y-15652138D01*
X2624743Y-15836680D01*
X2530688Y-16039305D01*
X2470989Y-16254570D01*
X2447251Y-16476695D01*
X508500Y-16476695D01*
X508500Y-13945323D01*
X17227416Y-13945323D01*
X17240579Y-14146159D01*
X17242380Y-14157529D01*
X17291923Y-14352604D01*
X17295764Y-14363451D01*
X17380029Y-14546238D01*
X17385778Y-14556195D01*
X17399512Y-14575628D01*
X17410101Y-14584016D01*
X17423402Y-14576988D01*
X18017578Y-13982812D01*
X18023956Y-13971132D01*
X18754008Y-13971132D01*
X18754139Y-13972965D01*
X18758390Y-13979580D01*
X19356571Y-14577761D01*
X19368951Y-14584521D01*
X19375531Y-14579595D01*
X19449195Y-14448060D01*
X19453876Y-14437547D01*
X19518572Y-14246957D01*
X19521257Y-14235774D01*
X19550434Y-14034539D01*
X19551064Y-14027157D01*
X19552464Y-13973704D01*
X19552221Y-13966305D01*
X19533616Y-13763824D01*
X19531518Y-13752503D01*
X19476887Y-13558797D01*
X19472763Y-13548050D01*
X19383741Y-13367534D01*
X19380217Y-13361784D01*
X19370195Y-13354262D01*
X19357776Y-13361034D01*
X18761622Y-13957188D01*
X18754008Y-13971132D01*
X18023956Y-13971132D01*
X18025192Y-13968868D01*
X18025061Y-13967035D01*
X18020810Y-13960420D01*
X17421120Y-13360730D01*
X17408740Y-13353970D01*
X17402774Y-13358436D01*
X17317857Y-13519836D01*
X17313448Y-13530479D01*
X17253767Y-13722684D01*
X17251373Y-13733946D01*
X17227717Y-13933821D01*
X17227416Y-13945323D01*
X508500Y-13945323D01*
X508500Y-12328134D01*
X2451500Y-12328134D01*
X2458255Y-12390316D01*
X2509385Y-12526705D01*
X2596739Y-12643261D01*
X2713295Y-12730615D01*
X2721704Y-12733767D01*
X2721705Y-12733768D01*
X2830960Y-12774726D01*
X2887725Y-12817367D01*
X2912425Y-12883929D01*
X2897218Y-12953278D01*
X2877825Y-12979759D01*
X2754590Y-13108717D01*
X2748104Y-13116727D01*
X2628098Y-13292649D01*
X2623000Y-13301623D01*
X2533338Y-13494783D01*
X2529775Y-13504470D01*
X2474389Y-13704183D01*
X2475912Y-13712607D01*
X2488292Y-13716000D01*
X5128344Y-13716000D01*
X5141875Y-13712027D01*
X5143180Y-13702947D01*
X5101214Y-13535875D01*
X5097894Y-13526124D01*
X5012972Y-13330814D01*
X5008105Y-13321739D01*
X4892426Y-13142926D01*
X4886136Y-13134757D01*
X4742293Y-12976677D01*
X4711241Y-12912831D01*
X4719635Y-12842333D01*
X4764812Y-12787564D01*
X4791256Y-12773895D01*
X4898297Y-12733767D01*
X4906705Y-12730615D01*
X5023261Y-12643261D01*
X5110615Y-12526705D01*
X5161745Y-12390316D01*
X5168500Y-12328134D01*
X5168500Y-12128134D01*
X17231100Y-12128134D01*
X17237855Y-12190316D01*
X17288985Y-12326705D01*
X17376339Y-12443261D01*
X17492895Y-12530615D01*
X17629284Y-12581745D01*
X17691466Y-12588500D01*
X18113742Y-12588500D01*
X18181863Y-12608502D01*
X18228356Y-12662158D01*
X18238460Y-12732432D01*
X18208966Y-12797012D01*
X18149240Y-12835396D01*
X18135080Y-12838680D01*
X18094301Y-12845687D01*
X18083181Y-12848667D01*
X17894348Y-12918331D01*
X17883970Y-12923281D01*
X17785506Y-12981861D01*
X17775907Y-12992196D01*
X17779393Y-13000583D01*
X18376788Y-13597978D01*
X18390732Y-13605592D01*
X18392565Y-13605461D01*
X18399180Y-13601210D01*
X18996133Y-13004257D01*
X19002893Y-12991877D01*
X18996863Y-12983822D01*
X18922457Y-12936875D01*
X18912209Y-12931654D01*
X18725263Y-12857070D01*
X18714235Y-12853803D01*
X18635183Y-12838079D01*
X18572273Y-12805172D01*
X18537141Y-12743477D01*
X18540941Y-12672582D01*
X18582467Y-12614996D01*
X18648533Y-12589002D01*
X18659764Y-12588500D01*
X19087734Y-12588500D01*
X19149916Y-12581745D01*
X19286305Y-12530615D01*
X19402861Y-12443261D01*
X19490215Y-12326705D01*
X19541345Y-12190316D01*
X19548100Y-12128134D01*
X19548100Y-10731866D01*
X19541345Y-10669684D01*
X19490215Y-10533295D01*
X19402861Y-10416739D01*
X19286305Y-10329385D01*
X19149916Y-10278255D01*
X19087734Y-10271500D01*
X17691466Y-10271500D01*
X17629284Y-10278255D01*
X17492895Y-10329385D01*
X17376339Y-10416739D01*
X17288985Y-10533295D01*
X17237855Y-10669684D01*
X17231100Y-10731866D01*
X17231100Y-12128134D01*
X5168500Y-12128134D01*
X5168500Y-10531866D01*
X5161745Y-10469684D01*
X5110615Y-10333295D01*
X5023261Y-10216739D01*
X4906705Y-10129385D01*
X4770316Y-10078255D01*
X4708134Y-10071500D01*
X2911866Y-10071500D01*
X2849684Y-10078255D01*
X2713295Y-10129385D01*
X2596739Y-10216739D01*
X2509385Y-10333295D01*
X2458255Y-10469684D01*
X2451500Y-10531866D01*
X2451500Y-12328134D01*
X508500Y-12328134D01*
X508500Y-6350000D01*
X7576502Y-6350000D01*
X7596457Y-6578087D01*
X7655716Y-6799243D01*
X7658039Y-6804224D01*
X7658039Y-6804225D01*
X7750151Y-7001762D01*
X7750154Y-7001767D01*
X7752477Y-7006749D01*
X7883802Y-7194300D01*
X8045700Y-7356198D01*
X8050208Y-7359355D01*
X8050211Y-7359357D01*
X8128389Y-7414098D01*
X8233251Y-7487523D01*
X8238233Y-7489846D01*
X8238238Y-7489849D01*
X8435775Y-7581961D01*
X8440757Y-7584284D01*
X8446065Y-7585706D01*
X8446067Y-7585707D01*
X8656598Y-7642119D01*
X8656600Y-7642119D01*
X8661913Y-7643543D01*
X8890000Y-7663498D01*
X9118087Y-7643543D01*
X9123400Y-7642119D01*
X9123402Y-7642119D01*
X9333933Y-7585707D01*
X9333935Y-7585706D01*
X9339243Y-7584284D01*
X9344225Y-7581961D01*
X9541762Y-7489849D01*
X9541767Y-7489846D01*
X9546749Y-7487523D01*
X9651611Y-7414098D01*
X9729789Y-7359357D01*
X9729792Y-7359355D01*
X9734300Y-7356198D01*
X9896198Y-7194300D01*
X10027523Y-7006749D01*
X10029846Y-7001767D01*
X10029849Y-7001762D01*
X10121961Y-6804225D01*
X10121961Y-6804224D01*
X10124284Y-6799243D01*
X10183543Y-6578087D01*
X10203498Y-6350000D01*
X12656502Y-6350000D01*
X12676457Y-6578087D01*
X12735716Y-6799243D01*
X12738039Y-6804224D01*
X12738039Y-6804225D01*
X12830151Y-7001762D01*
X12830154Y-7001767D01*
X12832477Y-7006749D01*
X12963802Y-7194300D01*
X13125700Y-7356198D01*
X13130208Y-7359355D01*
X13130211Y-7359357D01*
X13208389Y-7414098D01*
X13313251Y-7487523D01*
X13318233Y-7489846D01*
X13318238Y-7489849D01*
X13515775Y-7581961D01*
X13520757Y-7584284D01*
X13526065Y-7585706D01*
X13526067Y-7585707D01*
X13736598Y-7642119D01*
X13736600Y-7642119D01*
X13741913Y-7643543D01*
X13970000Y-7663498D01*
X14198087Y-7643543D01*
X14203400Y-7642119D01*
X14203402Y-7642119D01*
X14413933Y-7585707D01*
X14413935Y-7585706D01*
X14419243Y-7584284D01*
X14424225Y-7581961D01*
X14621762Y-7489849D01*
X14621767Y-7489846D01*
X14626749Y-7487523D01*
X14731611Y-7414098D01*
X14809789Y-7359357D01*
X14809792Y-7359355D01*
X14814300Y-7356198D01*
X14976198Y-7194300D01*
X15107523Y-7006749D01*
X15109846Y-7001767D01*
X15109849Y-7001762D01*
X15201961Y-6804225D01*
X15201961Y-6804224D01*
X15204284Y-6799243D01*
X15263543Y-6578087D01*
X15283498Y-6350000D01*
X15263543Y-6121913D01*
X15204284Y-5900757D01*
X15201961Y-5895775D01*
X15109849Y-5698238D01*
X15109846Y-5698233D01*
X15107523Y-5693251D01*
X14976198Y-5505700D01*
X14814300Y-5343802D01*
X14809792Y-5340645D01*
X14809789Y-5340643D01*
X14731611Y-5285902D01*
X14626749Y-5212477D01*
X14621767Y-5210154D01*
X14621762Y-5210151D01*
X14424225Y-5118039D01*
X14424224Y-5118039D01*
X14419243Y-5115716D01*
X14413935Y-5114294D01*
X14413933Y-5114293D01*
X14203402Y-5057881D01*
X14203400Y-5057881D01*
X14198087Y-5056457D01*
X13970000Y-5036502D01*
X13741913Y-5056457D01*
X13736600Y-5057881D01*
X13736598Y-5057881D01*
X13526067Y-5114293D01*
X13526065Y-5114294D01*
X13520757Y-5115716D01*
X13515776Y-5118039D01*
X13515775Y-5118039D01*
X13318238Y-5210151D01*
X13318233Y-5210154D01*
X13313251Y-5212477D01*
X13208389Y-5285902D01*
X13130211Y-5340643D01*
X13130208Y-5340645D01*
X13125700Y-5343802D01*
X12963802Y-5505700D01*
X12832477Y-5693251D01*
X12830154Y-5698233D01*
X12830151Y-5698238D01*
X12738039Y-5895775D01*
X12735716Y-5900757D01*
X12676457Y-6121913D01*
X12656502Y-6350000D01*
X10203498Y-6350000D01*
X10183543Y-6121913D01*
X10124284Y-5900757D01*
X10121961Y-5895775D01*
X10029849Y-5698238D01*
X10029846Y-5698233D01*
X10027523Y-5693251D01*
X9896198Y-5505700D01*
X9734300Y-5343802D01*
X9729792Y-5340645D01*
X9729789Y-5340643D01*
X9651611Y-5285902D01*
X9546749Y-5212477D01*
X9541767Y-5210154D01*
X9541762Y-5210151D01*
X9344225Y-5118039D01*
X9344224Y-5118039D01*
X9339243Y-5115716D01*
X9333935Y-5114294D01*
X9333933Y-5114293D01*
X9123402Y-5057881D01*
X9123400Y-5057881D01*
X9118087Y-5056457D01*
X8890000Y-5036502D01*
X8661913Y-5056457D01*
X8656600Y-5057881D01*
X8656598Y-5057881D01*
X8446067Y-5114293D01*
X8446065Y-5114294D01*
X8440757Y-5115716D01*
X8435776Y-5118039D01*
X8435775Y-5118039D01*
X8238238Y-5210151D01*
X8238233Y-5210154D01*
X8233251Y-5212477D01*
X8128389Y-5285902D01*
X8050211Y-5340643D01*
X8050208Y-5340645D01*
X8045700Y-5343802D01*
X7883802Y-5505700D01*
X7752477Y-5693251D01*
X7750154Y-5698233D01*
X7750151Y-5698238D01*
X7658039Y-5895775D01*
X7655716Y-5900757D01*
X7596457Y-6121913D01*
X7576502Y-6350000D01*
X508500Y-6350000D01*
X508500Y-2540000D01*
X7576502Y-2540000D01*
X7596457Y-2768087D01*
X7597881Y-2773400D01*
X7597881Y-2773402D01*
X7635025Y-2912022D01*
X7655716Y-2989243D01*
X7658039Y-2994224D01*
X7658039Y-2994225D01*
X7750151Y-3191762D01*
X7750154Y-3191767D01*
X7752477Y-3196749D01*
X7883802Y-3384300D01*
X8045700Y-3546198D01*
X8050208Y-3549355D01*
X8050211Y-3549357D01*
X8128389Y-3604098D01*
X8233251Y-3677523D01*
X8238233Y-3679846D01*
X8238238Y-3679849D01*
X8434765Y-3771490D01*
X8440757Y-3774284D01*
X8446065Y-3775706D01*
X8446067Y-3775707D01*
X8656598Y-3832119D01*
X8656600Y-3832119D01*
X8661913Y-3833543D01*
X8890000Y-3853498D01*
X9118087Y-3833543D01*
X9123400Y-3832119D01*
X9123402Y-3832119D01*
X9333933Y-3775707D01*
X9333935Y-3775706D01*
X9339243Y-3774284D01*
X9345235Y-3771490D01*
X9541762Y-3679849D01*
X9541767Y-3679846D01*
X9546749Y-3677523D01*
X9620243Y-3626062D01*
X13168493Y-3626062D01*
X13177789Y-3638077D01*
X13228994Y-3673931D01*
X13238489Y-3679414D01*
X13435947Y-3771490D01*
X13446239Y-3775236D01*
X13656688Y-3831625D01*
X13667481Y-3833528D01*
X13884525Y-3852517D01*
X13895475Y-3852517D01*
X14112519Y-3833528D01*
X14123312Y-3831625D01*
X14333761Y-3775236D01*
X14344053Y-3771490D01*
X14541511Y-3679414D01*
X14551006Y-3673931D01*
X14603048Y-3637491D01*
X14611424Y-3627012D01*
X14604356Y-3613566D01*
X13902812Y-2912022D01*
X13888868Y-2904408D01*
X13887035Y-2904539D01*
X13880420Y-2908790D01*
X13174923Y-3614287D01*
X13168493Y-3626062D01*
X9620243Y-3626062D01*
X9651611Y-3604098D01*
X9729789Y-3549357D01*
X9729792Y-3549355D01*
X9734300Y-3546198D01*
X9896198Y-3384300D01*
X10027523Y-3196749D01*
X10029846Y-3191767D01*
X10029849Y-3191762D01*
X10121961Y-2994225D01*
X10121961Y-2994224D01*
X10124284Y-2989243D01*
X10144976Y-2912022D01*
X10182119Y-2773402D01*
X10182119Y-2773400D01*
X10183543Y-2768087D01*
X10203019Y-2545475D01*
X12577483Y-2545475D01*
X12596472Y-2762519D01*
X12598375Y-2773312D01*
X12654764Y-2983761D01*
X12658510Y-2994053D01*
X12750586Y-3191511D01*
X12756069Y-3201006D01*
X12792509Y-3253048D01*
X12802988Y-3261424D01*
X12816434Y-3254356D01*
X13517978Y-2552812D01*
X13524356Y-2541132D01*
X14254408Y-2541132D01*
X14254539Y-2542965D01*
X14258790Y-2549580D01*
X14964287Y-3255077D01*
X14976062Y-3261507D01*
X14988077Y-3252211D01*
X15023931Y-3201006D01*
X15029414Y-3191511D01*
X15121490Y-2994053D01*
X15125236Y-2983761D01*
X15181625Y-2773312D01*
X15183528Y-2762519D01*
X15202517Y-2545475D01*
X15202517Y-2534525D01*
X15183528Y-2317481D01*
X15181625Y-2306688D01*
X15125236Y-2096239D01*
X15121490Y-2085947D01*
X15029414Y-1888489D01*
X15023931Y-1878994D01*
X14987491Y-1826952D01*
X14977012Y-1818576D01*
X14963566Y-1825644D01*
X14262022Y-2527188D01*
X14254408Y-2541132D01*
X13524356Y-2541132D01*
X13525592Y-2538868D01*
X13525461Y-2537035D01*
X13521210Y-2530420D01*
X12815713Y-1824923D01*
X12803938Y-1818493D01*
X12791923Y-1827789D01*
X12756069Y-1878994D01*
X12750586Y-1888489D01*
X12658510Y-2085947D01*
X12654764Y-2096239D01*
X12598375Y-2306688D01*
X12596472Y-2317481D01*
X12577483Y-2534525D01*
X12577483Y-2545475D01*
X10203019Y-2545475D01*
X10203498Y-2540000D01*
X10183543Y-2311913D01*
X10146981Y-2175461D01*
X10125707Y-2096067D01*
X10125706Y-2096065D01*
X10124284Y-2090757D01*
X10029966Y-1888489D01*
X10029849Y-1888238D01*
X10029846Y-1888233D01*
X10027523Y-1883251D01*
X9896198Y-1695700D01*
X9734300Y-1533802D01*
X9729792Y-1530645D01*
X9729789Y-1530643D01*
X9618886Y-1452988D01*
X13168576Y-1452988D01*
X13175644Y-1466434D01*
X13877188Y-2167978D01*
X13891132Y-2175592D01*
X13892965Y-2175461D01*
X13899580Y-2171210D01*
X14605077Y-1465713D01*
X14611507Y-1453938D01*
X14602211Y-1441923D01*
X14551006Y-1406069D01*
X14541511Y-1400586D01*
X14344053Y-1308510D01*
X14333761Y-1304764D01*
X14123312Y-1248375D01*
X14112519Y-1246472D01*
X13895475Y-1227483D01*
X13884525Y-1227483D01*
X13667481Y-1246472D01*
X13656688Y-1248375D01*
X13446239Y-1304764D01*
X13435947Y-1308510D01*
X13238489Y-1400586D01*
X13228994Y-1406069D01*
X13176952Y-1442509D01*
X13168576Y-1452988D01*
X9618886Y-1452988D01*
X9603920Y-1442509D01*
X9546749Y-1402477D01*
X9541767Y-1400154D01*
X9541762Y-1400151D01*
X9344225Y-1308039D01*
X9344224Y-1308039D01*
X9339243Y-1305716D01*
X9333935Y-1304294D01*
X9333933Y-1304293D01*
X9123402Y-1247881D01*
X9123400Y-1247881D01*
X9118087Y-1246457D01*
X8890000Y-1226502D01*
X8661913Y-1246457D01*
X8656600Y-1247881D01*
X8656598Y-1247881D01*
X8446067Y-1304293D01*
X8446065Y-1304294D01*
X8440757Y-1305716D01*
X8435776Y-1308039D01*
X8435775Y-1308039D01*
X8238238Y-1400151D01*
X8238233Y-1400154D01*
X8233251Y-1402477D01*
X8176080Y-1442509D01*
X8050211Y-1530643D01*
X8050208Y-1530645D01*
X8045700Y-1533802D01*
X7883802Y-1695700D01*
X7752477Y-1883251D01*
X7750154Y-1888233D01*
X7750151Y-1888238D01*
X7750034Y-1888489D01*
X7655716Y-2090757D01*
X7654294Y-2096065D01*
X7654293Y-2096067D01*
X7633019Y-2175461D01*
X7596457Y-2311913D01*
X7576502Y-2540000D01*
X508500Y-2540000D01*
X508500Y-634500D01*
X528502Y-566379D01*
X582158Y-519886D01*
X634500Y-508500D01*
X20955500Y-508500D01*
X21023621Y-528502D01*
G37*
%TD.AperFunction*%
M02*
