%TF.GenerationSoftware,KiCad,Pcbnew,(6.0.6)*%
%TF.CreationDate,2022-06-23T13:21:08-07:00*%
%TF.ProjectId,A1301EUA-T_HallEffectBoard,41313330-3145-4554-912d-545f48616c6c,rev?*%
%TF.SameCoordinates,Original*%
%TF.FileFunction,Legend,Top*%
%TF.FilePolarity,Positive*%
%FSLAX46Y46*%
G04 Gerber Fmt 4.6, Leading zero omitted, Abs format (unit mm)*
G04 Created by KiCad (PCBNEW (6.0.6)) date 2022-06-23 13:21:08*
%MOMM*%
%LPD*%
G01*
G04 APERTURE LIST*
%ADD10C,0.150000*%
%ADD11C,1.600000*%
%ADD12O,1.600000X1.600000*%
%ADD13R,1.700000X1.700000*%
%ADD14O,1.700000X1.700000*%
%ADD15R,1.300000X1.300000*%
%ADD16C,1.300000*%
G04 APERTURE END LIST*
D10*
X20198533Y-13620000D02*
X20131866Y-13586666D01*
X20031866Y-13586666D01*
X19931866Y-13620000D01*
X19865200Y-13686666D01*
X19831866Y-13753333D01*
X19798533Y-13886666D01*
X19798533Y-13986666D01*
X19831866Y-14120000D01*
X19865200Y-14186666D01*
X19931866Y-14253333D01*
X20031866Y-14286666D01*
X20098533Y-14286666D01*
X20198533Y-14253333D01*
X20231866Y-14220000D01*
X20231866Y-13986666D01*
X20098533Y-13986666D01*
X853333Y-16126666D02*
X986666Y-16126666D01*
X1053333Y-16160000D01*
X1120000Y-16226666D01*
X1153333Y-16360000D01*
X1153333Y-16593333D01*
X1120000Y-16726666D01*
X1053333Y-16793333D01*
X986666Y-16826666D01*
X853333Y-16826666D01*
X786666Y-16793333D01*
X720000Y-16726666D01*
X686666Y-16593333D01*
X686666Y-16360000D01*
X720000Y-16226666D01*
X786666Y-16160000D01*
X853333Y-16126666D01*
X1453333Y-16826666D02*
X1453333Y-16126666D01*
X1720000Y-16126666D01*
X1786666Y-16160000D01*
X1820000Y-16193333D01*
X1853333Y-16260000D01*
X1853333Y-16360000D01*
X1820000Y-16426666D01*
X1786666Y-16460000D01*
X1720000Y-16493333D01*
X1453333Y-16493333D01*
X16360800Y-13754933D02*
X16394133Y-13721600D01*
X16460800Y-13688266D01*
X16627466Y-13688266D01*
X16694133Y-13721600D01*
X16727466Y-13754933D01*
X16760800Y-13821600D01*
X16760800Y-13888266D01*
X16727466Y-13988266D01*
X16327466Y-14388266D01*
X16760800Y-14388266D01*
X10240000Y-3526666D02*
X10306666Y-3526666D01*
X10373333Y-3560000D01*
X10406666Y-3593333D01*
X10440000Y-3660000D01*
X10473333Y-3793333D01*
X10473333Y-3960000D01*
X10440000Y-4093333D01*
X10406666Y-4160000D01*
X10373333Y-4193333D01*
X10306666Y-4226666D01*
X10240000Y-4226666D01*
X10173333Y-4193333D01*
X10140000Y-4160000D01*
X10106666Y-4093333D01*
X10073333Y-3960000D01*
X10073333Y-3793333D01*
X10106666Y-3660000D01*
X10140000Y-3593333D01*
X10173333Y-3560000D01*
X10240000Y-3526666D01*
X10773333Y-4160000D02*
X10806666Y-4193333D01*
X10773333Y-4226666D01*
X10740000Y-4193333D01*
X10773333Y-4160000D01*
X10773333Y-4226666D01*
X11473333Y-4226666D02*
X11073333Y-4226666D01*
X11273333Y-4226666D02*
X11273333Y-3526666D01*
X11206666Y-3626666D01*
X11140000Y-3693333D01*
X11073333Y-3726666D01*
X12073333Y-3760000D02*
X12073333Y-4226666D01*
X11773333Y-3760000D02*
X11773333Y-4126666D01*
X11806666Y-4193333D01*
X11873333Y-4226666D01*
X11973333Y-4226666D01*
X12040000Y-4193333D01*
X12073333Y-4160000D01*
X12640000Y-3860000D02*
X12406666Y-3860000D01*
X12406666Y-4226666D02*
X12406666Y-3526666D01*
X12740000Y-3526666D01*
X16327466Y-16177466D02*
X16760800Y-16177466D01*
X16527466Y-16444133D01*
X16627466Y-16444133D01*
X16694133Y-16477466D01*
X16727466Y-16510800D01*
X16760800Y-16577466D01*
X16760800Y-16744133D01*
X16727466Y-16810800D01*
X16694133Y-16844133D01*
X16627466Y-16877466D01*
X16427466Y-16877466D01*
X16360800Y-16844133D01*
X16327466Y-16810800D01*
X1036666Y-11046666D02*
X1270000Y-11746666D01*
X1503333Y-11046666D01*
X16659200Y-11797466D02*
X16259200Y-11797466D01*
X16459200Y-11797466D02*
X16459200Y-11097466D01*
X16392533Y-11197466D01*
X16325866Y-11264133D01*
X16259200Y-11297466D01*
X19454761Y-9881904D02*
X19502380Y-9786666D01*
X19502380Y-9596190D01*
X19454761Y-9500952D01*
X19359523Y-9453333D01*
X19311904Y-9453333D01*
X19216666Y-9500952D01*
X19169047Y-9596190D01*
X19169047Y-9739047D01*
X19121428Y-9834285D01*
X19026190Y-9881904D01*
X18978571Y-9881904D01*
X18883333Y-9834285D01*
X18835714Y-9739047D01*
X18835714Y-9596190D01*
X18883333Y-9500952D01*
X19454761Y-8643809D02*
X19502380Y-8739047D01*
X19502380Y-8929523D01*
X19454761Y-9024761D01*
X19359523Y-9072380D01*
X18978571Y-9072380D01*
X18883333Y-9024761D01*
X18835714Y-8929523D01*
X18835714Y-8739047D01*
X18883333Y-8643809D01*
X18978571Y-8596190D01*
X19073809Y-8596190D01*
X19169047Y-9072380D01*
X18835714Y-8167619D02*
X19502380Y-8167619D01*
X18930952Y-8167619D02*
X18883333Y-8120000D01*
X18835714Y-8024761D01*
X18835714Y-7881904D01*
X18883333Y-7786666D01*
X18978571Y-7739047D01*
X19502380Y-7739047D01*
X19454761Y-7310476D02*
X19502380Y-7215238D01*
X19502380Y-7024761D01*
X19454761Y-6929523D01*
X19359523Y-6881904D01*
X19311904Y-6881904D01*
X19216666Y-6929523D01*
X19169047Y-7024761D01*
X19169047Y-7167619D01*
X19121428Y-7262857D01*
X19026190Y-7310476D01*
X18978571Y-7310476D01*
X18883333Y-7262857D01*
X18835714Y-7167619D01*
X18835714Y-7024761D01*
X18883333Y-6929523D01*
X19502380Y-6310476D02*
X19454761Y-6405714D01*
X19407142Y-6453333D01*
X19311904Y-6500952D01*
X19026190Y-6500952D01*
X18930952Y-6453333D01*
X18883333Y-6405714D01*
X18835714Y-6310476D01*
X18835714Y-6167619D01*
X18883333Y-6072380D01*
X18930952Y-6024761D01*
X19026190Y-5977142D01*
X19311904Y-5977142D01*
X19407142Y-6024761D01*
X19454761Y-6072380D01*
X19502380Y-6167619D01*
X19502380Y-6310476D01*
X19502380Y-5548571D02*
X18835714Y-5548571D01*
X19026190Y-5548571D02*
X18930952Y-5500952D01*
X18883333Y-5453333D01*
X18835714Y-5358095D01*
X18835714Y-5262857D01*
X10446666Y-23880000D02*
X10446666Y-24346666D01*
X10280000Y-23613333D02*
X10113333Y-24113333D01*
X10546666Y-24113333D01*
X10813333Y-24280000D02*
X10846666Y-24313333D01*
X10813333Y-24346666D01*
X10780000Y-24313333D01*
X10813333Y-24280000D01*
X10813333Y-24346666D01*
X11080000Y-23646666D02*
X11546666Y-23646666D01*
X11246666Y-24346666D01*
X11813333Y-23880000D02*
X11813333Y-24346666D01*
X11813333Y-23946666D02*
X11846666Y-23913333D01*
X11913333Y-23880000D01*
X12013333Y-23880000D01*
X12080000Y-23913333D01*
X12113333Y-23980000D01*
X12113333Y-24346666D01*
X12680000Y-23980000D02*
X12446666Y-23980000D01*
X12446666Y-24346666D02*
X12446666Y-23646666D01*
X12780000Y-23646666D01*
X9257466Y-19460933D02*
X9257466Y-19860933D01*
X9257466Y-19660933D02*
X8557466Y-19660933D01*
X8657466Y-19727600D01*
X8724133Y-19794266D01*
X8757466Y-19860933D01*
X8557466Y-19027600D02*
X8557466Y-18960933D01*
X8590800Y-18894266D01*
X8624133Y-18860933D01*
X8690800Y-18827600D01*
X8824133Y-18794266D01*
X8990800Y-18794266D01*
X9124133Y-18827600D01*
X9190800Y-18860933D01*
X9224133Y-18894266D01*
X9257466Y-18960933D01*
X9257466Y-19027600D01*
X9224133Y-19094266D01*
X9190800Y-19127600D01*
X9124133Y-19160933D01*
X8990800Y-19194266D01*
X8824133Y-19194266D01*
X8690800Y-19160933D01*
X8624133Y-19127600D01*
X8590800Y-19094266D01*
X8557466Y-19027600D01*
X8557466Y-18360933D02*
X8557466Y-18294266D01*
X8590800Y-18227600D01*
X8624133Y-18194266D01*
X8690800Y-18160933D01*
X8824133Y-18127600D01*
X8990800Y-18127600D01*
X9124133Y-18160933D01*
X9190800Y-18194266D01*
X9224133Y-18227600D01*
X9257466Y-18294266D01*
X9257466Y-18360933D01*
X9224133Y-18427600D01*
X9190800Y-18460933D01*
X9124133Y-18494266D01*
X8990800Y-18527600D01*
X8824133Y-18527600D01*
X8690800Y-18494266D01*
X8624133Y-18460933D01*
X8590800Y-18427600D01*
X8557466Y-18360933D01*
X9257466Y-17194266D02*
X9224133Y-17260933D01*
X9190800Y-17294266D01*
X9124133Y-17327600D01*
X8924133Y-17327600D01*
X8857466Y-17294266D01*
X8824133Y-17260933D01*
X8790800Y-17194266D01*
X8790800Y-17094266D01*
X8824133Y-17027600D01*
X8857466Y-16994266D01*
X8924133Y-16960933D01*
X9124133Y-16960933D01*
X9190800Y-16994266D01*
X9224133Y-17027600D01*
X9257466Y-17094266D01*
X9257466Y-17194266D01*
X9257466Y-16660933D02*
X8557466Y-16660933D01*
X9257466Y-16360933D02*
X8890800Y-16360933D01*
X8824133Y-16394266D01*
X8790800Y-16460933D01*
X8790800Y-16560933D01*
X8824133Y-16627600D01*
X8857466Y-16660933D01*
X9257466Y-16027600D02*
X8790800Y-16027600D01*
X8857466Y-16027600D02*
X8824133Y-15994266D01*
X8790800Y-15927600D01*
X8790800Y-15827600D01*
X8824133Y-15760933D01*
X8890800Y-15727600D01*
X9257466Y-15727600D01*
X8890800Y-15727600D02*
X8824133Y-15694266D01*
X8790800Y-15627600D01*
X8790800Y-15527600D01*
X8824133Y-15460933D01*
X8890800Y-15427600D01*
X9257466Y-15427600D01*
X19801733Y-16228266D02*
X19935066Y-16228266D01*
X20001733Y-16261600D01*
X20068400Y-16328266D01*
X20101733Y-16461600D01*
X20101733Y-16694933D01*
X20068400Y-16828266D01*
X20001733Y-16894933D01*
X19935066Y-16928266D01*
X19801733Y-16928266D01*
X19735066Y-16894933D01*
X19668400Y-16828266D01*
X19635066Y-16694933D01*
X19635066Y-16461600D01*
X19668400Y-16328266D01*
X19735066Y-16261600D01*
X19801733Y-16228266D01*
X20401733Y-16928266D02*
X20401733Y-16228266D01*
X20668400Y-16228266D01*
X20735066Y-16261600D01*
X20768400Y-16294933D01*
X20801733Y-16361600D01*
X20801733Y-16461600D01*
X20768400Y-16528266D01*
X20735066Y-16561600D01*
X20668400Y-16594933D01*
X20401733Y-16594933D01*
X1453333Y-13620000D02*
X1386666Y-13586666D01*
X1286666Y-13586666D01*
X1186666Y-13620000D01*
X1120000Y-13686666D01*
X1086666Y-13753333D01*
X1053333Y-13886666D01*
X1053333Y-13986666D01*
X1086666Y-14120000D01*
X1120000Y-14186666D01*
X1186666Y-14253333D01*
X1286666Y-14286666D01*
X1353333Y-14286666D01*
X1453333Y-14253333D01*
X1486666Y-14220000D01*
X1486666Y-13986666D01*
X1353333Y-13986666D01*
X19832666Y-11148266D02*
X20066000Y-11848266D01*
X20299333Y-11148266D01*
X13667600Y-19541866D02*
X14134266Y-19541866D01*
X13400933Y-19708533D02*
X13900933Y-19875200D01*
X13900933Y-19441866D01*
X14067600Y-19175200D02*
X14100933Y-19141866D01*
X14134266Y-19175200D01*
X14100933Y-19208533D01*
X14067600Y-19175200D01*
X14134266Y-19175200D01*
X13734266Y-18741866D02*
X13700933Y-18808533D01*
X13667600Y-18841866D01*
X13600933Y-18875200D01*
X13567600Y-18875200D01*
X13500933Y-18841866D01*
X13467600Y-18808533D01*
X13434266Y-18741866D01*
X13434266Y-18608533D01*
X13467600Y-18541866D01*
X13500933Y-18508533D01*
X13567600Y-18475200D01*
X13600933Y-18475200D01*
X13667600Y-18508533D01*
X13700933Y-18541866D01*
X13734266Y-18608533D01*
X13734266Y-18741866D01*
X13767600Y-18808533D01*
X13800933Y-18841866D01*
X13867600Y-18875200D01*
X14000933Y-18875200D01*
X14067600Y-18841866D01*
X14100933Y-18808533D01*
X14134266Y-18741866D01*
X14134266Y-18608533D01*
X14100933Y-18541866D01*
X14067600Y-18508533D01*
X14000933Y-18475200D01*
X13867600Y-18475200D01*
X13800933Y-18508533D01*
X13767600Y-18541866D01*
X13734266Y-18608533D01*
X14134266Y-17641866D02*
X13434266Y-17641866D01*
X13867600Y-17575200D02*
X14134266Y-17375200D01*
X13667600Y-17375199D02*
X13934266Y-17641866D01*
X13434266Y-16941866D02*
X13434266Y-16808533D01*
X13467600Y-16741866D01*
X13534266Y-16675200D01*
X13667600Y-16641866D01*
X13900933Y-16641866D01*
X14034266Y-16675200D01*
X14100933Y-16741866D01*
X14134266Y-16808533D01*
X14134266Y-16941866D01*
X14100933Y-17008533D01*
X14034266Y-17075200D01*
X13900933Y-17108533D01*
X13667600Y-17108533D01*
X13534266Y-17075200D01*
X13467600Y-17008533D01*
X13434266Y-16941866D01*
X14134266Y-16341866D02*
X13434266Y-16341866D01*
X14134266Y-16041866D02*
X13767600Y-16041866D01*
X13700933Y-16075199D01*
X13667600Y-16141866D01*
X13667600Y-16241866D01*
X13700933Y-16308533D01*
X13734266Y-16341866D01*
X14134266Y-15708533D02*
X13667600Y-15708533D01*
X13734266Y-15708533D02*
X13700933Y-15675200D01*
X13667600Y-15608533D01*
X13667600Y-15508533D01*
X13700933Y-15441866D01*
X13767600Y-15408533D01*
X14134266Y-15408533D01*
X13767600Y-15408533D02*
X13700933Y-15375200D01*
X13667600Y-15308533D01*
X13667600Y-15208533D01*
X13700933Y-15141866D01*
X13767600Y-15108533D01*
X14134266Y-15108533D01*
X16383333Y-25757142D02*
X16335714Y-25804761D01*
X16192857Y-25852380D01*
X16097619Y-25852380D01*
X15954761Y-25804761D01*
X15859523Y-25709523D01*
X15811904Y-25614285D01*
X15764285Y-25423809D01*
X15764285Y-25280952D01*
X15811904Y-25090476D01*
X15859523Y-24995238D01*
X15954761Y-24900000D01*
X16097619Y-24852380D01*
X16192857Y-24852380D01*
X16335714Y-24900000D01*
X16383333Y-24947619D01*
X17335714Y-25852380D02*
X16764285Y-25852380D01*
X17050000Y-25852380D02*
X17050000Y-24852380D01*
X16954761Y-24995238D01*
X16859523Y-25090476D01*
X16764285Y-25138095D01*
X6802380Y-6516666D02*
X6326190Y-6850000D01*
X6802380Y-7088095D02*
X5802380Y-7088095D01*
X5802380Y-6707142D01*
X5850000Y-6611904D01*
X5897619Y-6564285D01*
X5992857Y-6516666D01*
X6135714Y-6516666D01*
X6230952Y-6564285D01*
X6278571Y-6611904D01*
X6326190Y-6707142D01*
X6326190Y-7088095D01*
X5897619Y-6135714D02*
X5850000Y-6088095D01*
X5802380Y-5992857D01*
X5802380Y-5754761D01*
X5850000Y-5659523D01*
X5897619Y-5611904D01*
X5992857Y-5564285D01*
X6088095Y-5564285D01*
X6230952Y-5611904D01*
X6802380Y-6183333D01*
X6802380Y-5564285D01*
X16962380Y-21756666D02*
X16486190Y-22090000D01*
X16962380Y-22328095D02*
X15962380Y-22328095D01*
X15962380Y-21947142D01*
X16010000Y-21851904D01*
X16057619Y-21804285D01*
X16152857Y-21756666D01*
X16295714Y-21756666D01*
X16390952Y-21804285D01*
X16438571Y-21851904D01*
X16486190Y-21947142D01*
X16486190Y-22328095D01*
X16962380Y-20804285D02*
X16962380Y-21375714D01*
X16962380Y-21090000D02*
X15962380Y-21090000D01*
X16105238Y-21185238D01*
X16200476Y-21280476D01*
X16248095Y-21375714D01*
X16343333Y-2897142D02*
X16295714Y-2944761D01*
X16152857Y-2992380D01*
X16057619Y-2992380D01*
X15914761Y-2944761D01*
X15819523Y-2849523D01*
X15771904Y-2754285D01*
X15724285Y-2563809D01*
X15724285Y-2420952D01*
X15771904Y-2230476D01*
X15819523Y-2135238D01*
X15914761Y-2040000D01*
X16057619Y-1992380D01*
X16152857Y-1992380D01*
X16295714Y-2040000D01*
X16343333Y-2087619D01*
X16724285Y-2087619D02*
X16771904Y-2040000D01*
X16867142Y-1992380D01*
X17105238Y-1992380D01*
X17200476Y-2040000D01*
X17248095Y-2087619D01*
X17295714Y-2182857D01*
X17295714Y-2278095D01*
X17248095Y-2420952D01*
X16676666Y-2992380D01*
X17295714Y-2992380D01*
X3476666Y-8552380D02*
X3476666Y-9266666D01*
X3429047Y-9409523D01*
X3333809Y-9504761D01*
X3190952Y-9552380D01*
X3095714Y-9552380D01*
X4476666Y-9552380D02*
X3905238Y-9552380D01*
X4190952Y-9552380D02*
X4190952Y-8552380D01*
X4095714Y-8695238D01*
X4000476Y-8790476D01*
X3905238Y-8838095D01*
%LPC*%
D11*
X8930000Y-25400000D03*
X13930000Y-25400000D03*
X8890000Y-6350000D03*
D12*
X8890000Y-21590000D03*
D11*
X13970000Y-6350000D03*
D12*
X13970000Y-21590000D03*
D11*
X8890000Y-2540000D03*
X13890000Y-2540000D03*
D13*
X3810000Y-11430000D03*
D14*
X3810000Y-13970000D03*
X3810000Y-16510000D03*
D15*
X18389600Y-11430000D03*
D16*
X18389600Y-13970000D03*
X18389600Y-16510000D03*
M02*
